<svg width="241" height="241" viewBox="0 0 241 241" fill="none" xmlns="http://www.w3.org/2000/svg">
<g clip-path="url(#clip0_2030_5)">
<rect width="241" height="241" fill="white"/>
<rect width="241" height="241" fill="white"/>
<g clip-path="url(#clip1_2030_5)">
<path d="M120.5 105.031H88.1349L120.5 161.669L152.865 105.031H120.5Z" fill="#0066CC"/>
<path d="M49.0376 174.512L111.686 202.762C113.394 203.551 115.344 202.301 115.344 200.422V179.259L49.7466 172.072C48.3125 171.911 47.7389 173.874 49.0376 174.512Z" fill="#0066CC"/>
<path d="M191.253 172.072L125.656 179.255V200.419C125.656 202.301 127.606 203.548 129.314 202.758L191.962 174.508C193.261 173.874 192.687 171.911 191.253 172.072Z" fill="#0066CC"/>
<path d="M165.788 91.4381L192.062 75.7437C192.878 75.2539 192.9 74.0809 192.104 73.5588L143.503 41.7834C141.186 40.4589 138.631 43.0982 140.029 45.3734L165.788 91.4381Z" fill="#0066CC"/>
<path d="M75.212 91.4381L100.971 45.3734C102.369 43.0982 99.8138 40.4589 97.4967 41.7834L48.8958 73.562C48.0998 74.0841 48.1256 75.2571 48.9377 75.747L75.212 91.4381Z" fill="#0066CC"/>
<path d="M195.891 85.4053L171.192 100.226L195.456 139.655C196.136 140.764 197.844 140.281 197.844 138.979V86.5106C197.844 85.5084 196.751 84.8896 195.891 85.4053Z" fill="#0066CC"/>
<path d="M45.5442 139.652L69.8076 100.223L45.1092 85.4053C44.2487 84.8896 43.1562 85.5084 43.1562 86.5106V138.979C43.1562 140.277 44.861 140.761 45.5442 139.652Z" fill="#0066CC"/>
<path fill-rule="evenodd" clip-rule="evenodd" d="M77.5581 107.306L43.543 157.544C42.5504 159.156 43.5752 161.25 45.454 161.457L112.569 168.569L77.5581 107.306ZM163.442 107.306L128.434 168.569L195.549 161.457C197.428 161.247 198.453 159.156 197.46 157.544L163.442 107.306Z" fill="url(#paint0_linear_2030_5)"/>
<path d="M120.5 94.7188H155.695L124.892 40.4557C123.884 38.8186 122.192 38 120.5 38C118.808 38 117.116 38.8186 116.108 40.4557L85.3054 94.7188H120.5Z" fill="url(#paint1_linear_2030_5)"/>
</g>
</g>
<defs>
<linearGradient id="paint0_linear_2030_5" x1="10562.1" y1="37.9997" x2="4324.58" y2="16281.5" gradientUnits="userSpaceOnUse">
<stop stop-color="#2B9AF3"/>
<stop offset="1" stop-color="#73BCF7" stop-opacity="0.502213"/>
</linearGradient>
<linearGradient id="paint1_linear_2030_5" x1="10562.1" y1="37.9997" x2="4324.58" y2="16281.5" gradientUnits="userSpaceOnUse">
<stop stop-color="#2B9AF3"/>
<stop offset="1" stop-color="#73BCF7" stop-opacity="0.502213"/>
</linearGradient>
<clipPath id="clip0_2030_5">
<rect width="241" height="241" fill="white"/>
</clipPath>
<clipPath id="clip1_2030_5">
<rect width="165" height="165" fill="white" transform="translate(38 38)"/>
</clipPath>
</defs>
</svg>
