<svg width="782" height="165" viewBox="0 0 782 165" fill="none" xmlns="http://www.w3.org/2000/svg">
<path d="M219.477 115V65.132H198.638V51.3H255.968V65.132H235.129V115H219.477ZM261.93 115V51.3L276.672 48.115V70.137C280.312 67.3463 284.619 65.951 289.594 65.951C293.355 65.951 296.662 66.77 299.513 68.408C302.425 70.046 304.7 72.321 306.338 75.233C307.976 78.145 308.795 81.512 308.795 85.334V115H294.053V87.336C294.053 84.6667 293.264 82.5433 291.687 80.966C290.11 79.3887 287.986 78.6 285.317 78.6C283.436 78.6 281.768 78.9337 280.312 79.601C278.917 80.2683 277.703 81.2087 276.672 82.422V115H261.93ZM341.357 115.91C336.443 115.91 331.984 114.818 327.98 112.634C324.037 110.389 320.913 107.386 318.607 103.625C316.302 99.8637 315.149 95.6473 315.149 90.976C315.149 86.3047 316.241 82.0883 318.425 78.327C320.67 74.5657 323.703 71.593 327.525 69.409C331.347 67.1643 335.594 66.042 340.265 66.042C344.997 66.042 349.183 67.1947 352.823 69.5C356.463 71.7447 359.315 74.8387 361.377 78.782C363.501 82.7253 364.562 87.245 364.562 92.341V95.981H330.255C330.923 97.4977 331.802 98.8323 332.894 99.985C334.047 101.138 335.412 102.048 336.989 102.715C338.567 103.322 340.265 103.625 342.085 103.625C344.087 103.625 345.907 103.322 347.545 102.715C349.183 102.048 350.579 101.138 351.731 99.985L361.468 108.63C358.435 111.178 355.311 113.028 352.095 114.181C348.941 115.334 345.361 115.91 341.357 115.91ZM329.982 85.698H350.093C349.608 84.1207 348.85 82.786 347.818 81.694C346.848 80.5413 345.695 79.6617 344.36 79.055C343.026 78.3877 341.57 78.054 339.992 78.054C338.354 78.054 336.868 78.3573 335.533 78.964C334.199 79.5707 333.046 80.4503 332.075 81.603C331.165 82.695 330.468 84.06 329.982 85.698ZM371.226 115V66.861H385.968V115H371.226ZM378.597 62.402C376.352 62.402 374.441 61.6133 372.864 60.036C371.287 58.4587 370.498 56.5477 370.498 54.303C370.498 52.0583 371.287 50.1473 372.864 48.57C374.441 46.9927 376.352 46.204 378.597 46.204C380.842 46.204 382.753 46.9927 384.33 48.57C385.907 50.1473 386.696 52.0583 386.696 54.303C386.696 56.5477 385.907 58.4587 384.33 60.036C382.753 61.6133 380.842 62.402 378.597 62.402ZM410.194 115.819C406.796 115.819 403.763 115.182 401.094 113.908C398.485 112.634 396.422 110.875 394.906 108.63C393.45 106.385 392.722 103.807 392.722 100.895C392.722 96.2843 394.451 92.7353 397.909 90.248C401.427 87.7 406.311 86.426 412.56 86.426C416.321 86.426 419.961 86.881 423.48 87.791V85.425C423.48 82.9983 422.691 81.2087 421.114 80.056C419.597 78.8427 417.322 78.236 414.289 78.236C412.408 78.236 410.285 78.5393 407.919 79.146C405.613 79.7527 402.883 80.7233 399.729 82.058L394.451 71.229C398.394 69.4697 402.186 68.1653 405.826 67.316C409.526 66.406 413.227 65.951 416.928 65.951C423.601 65.951 428.788 67.5587 432.489 70.774C436.189 73.9287 438.04 78.3877 438.04 84.151V115H423.48V112.088C421.538 113.423 419.476 114.393 417.292 115C415.168 115.546 412.802 115.819 410.194 115.819ZM406.736 100.622C406.736 102.139 407.403 103.322 408.738 104.171C410.072 105.02 411.923 105.445 414.289 105.445C416.048 105.445 417.686 105.263 419.203 104.899C420.78 104.535 422.206 103.959 423.48 103.17V96.982C422.084 96.618 420.659 96.345 419.203 96.163C417.747 95.981 416.26 95.89 414.744 95.89C412.196 95.89 410.224 96.3147 408.829 97.164C407.433 97.9527 406.736 99.1053 406.736 100.622ZM470.781 115.91C465.624 115.91 460.528 114.97 455.493 113.089C450.457 111.208 445.968 108.6 442.025 105.263L450.761 93.888C454.643 97.0427 458.223 99.3177 461.499 100.713C464.775 102.048 468.263 102.715 471.964 102.715C474.39 102.715 476.453 102.472 478.152 101.987C479.85 101.502 481.155 100.804 482.065 99.894C482.975 98.9233 483.43 97.801 483.43 96.527C483.43 94.7677 482.762 93.4027 481.428 92.432C480.093 91.4613 477.818 90.703 474.603 90.157L460.589 87.7C455.432 86.79 451.458 84.8183 448.668 81.785C445.877 78.7517 444.482 74.8993 444.482 70.228C444.482 66.1027 445.513 62.5537 447.576 59.581C449.699 56.6083 452.702 54.3333 456.585 52.756C460.528 51.1787 465.199 50.39 470.599 50.39C475.331 50.39 480.093 51.209 484.886 52.847C489.678 54.4243 493.834 56.6387 497.353 59.49L489.072 71.047C482.52 66.0117 475.998 63.494 469.507 63.494C467.383 63.494 465.533 63.7367 463.956 64.222C462.439 64.6467 461.256 65.2837 460.407 66.133C459.618 66.9217 459.224 67.8923 459.224 69.045C459.224 70.6223 459.8 71.8357 460.953 72.685C462.166 73.5343 464.107 74.2017 466.777 74.687L479.972 76.871C486.099 77.8417 490.74 79.874 493.895 82.968C497.11 86.062 498.718 90.066 498.718 94.98C498.718 99.2873 497.595 103.018 495.351 106.173C493.106 109.267 489.891 111.663 485.705 113.362C481.519 115.061 476.544 115.91 470.781 115.91ZM523.748 115.91C519.986 115.91 516.65 115.091 513.738 113.453C510.886 111.815 508.642 109.54 507.004 106.628C505.366 103.655 504.547 100.288 504.547 96.527V66.861H519.289V94.525C519.289 97.1337 520.077 99.257 521.655 100.895C523.293 102.472 525.416 103.261 528.025 103.261C529.905 103.261 531.574 102.927 533.03 102.26C534.486 101.593 535.699 100.652 536.67 99.439V66.861H551.412V115H536.67V111.724C533.03 114.515 528.722 115.91 523.748 115.91ZM560.314 115V66.861H575.056V71.684C576.633 69.7427 578.484 68.2867 580.607 67.316C582.73 66.2847 585.096 65.769 587.705 65.769C590.314 65.8297 592.164 66.224 593.256 66.952V79.783C592.285 79.2977 591.193 78.9337 589.98 78.691C588.767 78.4483 587.523 78.327 586.249 78.327C583.944 78.327 581.79 78.873 579.788 79.965C577.847 80.9963 576.269 82.4827 575.056 84.424V115H560.314ZM622.057 115.91C617.143 115.91 612.684 114.818 608.68 112.634C604.736 110.389 601.612 107.386 599.307 103.625C597.001 99.8637 595.849 95.6473 595.849 90.976C595.849 86.3047 596.941 82.0883 599.125 78.327C601.369 74.5657 604.403 71.593 608.225 69.409C612.047 67.1643 616.293 66.042 620.965 66.042C625.697 66.042 629.883 67.1947 633.523 69.5C637.163 71.7447 640.014 74.8387 642.077 78.782C644.2 82.7253 645.262 87.245 645.262 92.341V95.981H610.955C611.622 97.4977 612.502 98.8323 613.594 99.985C614.746 101.138 616.111 102.048 617.689 102.715C619.266 103.322 620.965 103.625 622.785 103.625C624.787 103.625 626.607 103.322 628.245 102.715C629.883 102.048 631.278 101.138 632.431 99.985L642.168 108.63C639.134 111.178 636.01 113.028 632.795 114.181C629.64 115.334 626.061 115.91 622.057 115.91ZM610.682 85.698H630.793C630.307 84.1207 629.549 82.786 628.518 81.694C627.547 80.5413 626.394 79.6617 625.06 79.055C623.725 78.3877 622.269 78.054 620.692 78.054C619.054 78.054 617.567 78.3573 616.233 78.964C614.898 79.5707 613.745 80.4503 612.775 81.603C611.865 82.695 611.167 84.06 610.682 85.698ZM674.889 115.637C669.126 115.637 664.758 114.363 661.785 111.815C658.873 109.206 657.417 105.384 657.417 100.349V79.146H647.68V66.861H657.417V54.485L672.159 51.3V66.861H685.627V79.146H672.159V97.437C672.159 99.5603 672.614 101.077 673.524 101.987C674.495 102.836 676.163 103.261 678.529 103.261C679.743 103.261 680.835 103.2 681.805 103.079C682.837 102.897 683.959 102.624 685.172 102.26V114.181C683.838 114.606 682.139 114.939 680.076 115.182C678.014 115.485 676.285 115.637 674.889 115.637ZM716.341 115.637C710.577 115.637 706.209 114.363 703.237 111.815C700.325 109.206 698.869 105.384 698.869 100.349V79.146H689.132V66.861H698.869V54.485L713.611 51.3V66.861H727.079V79.146H713.611V97.437C713.611 99.5603 714.066 101.077 714.976 101.987C715.946 102.836 717.615 103.261 719.981 103.261C721.194 103.261 722.286 103.2 723.257 103.079C724.288 102.897 725.41 102.624 726.624 102.26V114.181C725.289 114.606 723.59 114.939 721.528 115.182C719.465 115.485 717.736 115.637 716.341 115.637ZM756.186 115.91C751.272 115.91 746.813 114.818 742.809 112.634C738.865 110.389 735.741 107.386 733.436 103.625C731.13 99.8637 729.978 95.6473 729.978 90.976C729.978 86.3047 731.07 82.0883 733.254 78.327C735.498 74.5657 738.532 71.593 742.354 69.409C746.176 67.1643 750.422 66.042 755.094 66.042C759.826 66.042 764.012 67.1947 767.652 69.5C771.292 71.7447 774.143 74.8387 776.206 78.782C778.329 82.7253 779.391 87.245 779.391 92.341V95.981H745.084C745.751 97.4977 746.631 98.8323 747.723 99.985C748.875 101.138 750.24 102.048 751.818 102.715C753.395 103.322 755.094 103.625 756.914 103.625C758.916 103.625 760.736 103.322 762.374 102.715C764.012 102.048 765.407 101.138 766.56 99.985L776.297 108.63C773.263 111.178 770.139 113.028 766.924 114.181C763.769 115.334 760.19 115.91 756.186 115.91ZM744.811 85.698H764.922C764.436 84.1207 763.678 82.786 762.647 81.694C761.676 80.5413 760.523 79.6617 759.189 79.055C757.854 78.3877 756.398 78.054 754.821 78.054C753.183 78.054 751.696 78.3573 750.362 78.964C749.027 79.5707 747.874 80.4503 746.904 81.603C745.994 82.695 745.296 84.06 744.811 85.698Z" fill="black"/>
<g clip-path="url(#clip0_2022_31)">
<path d="M82.5 67.0313H50.1349L82.5 123.669L114.865 67.0313H82.5Z" fill="#0066CC"/>
<path d="M11.0376 136.512L73.686 164.762C75.394 165.551 77.3437 164.301 77.3437 162.422V141.259L11.7466 134.072C10.3125 133.911 9.73887 135.874 11.0376 136.512Z" fill="#0066CC"/>
<path d="M153.253 134.072L87.6562 141.255V162.419C87.6562 164.301 89.606 165.548 91.314 164.758L153.962 136.508C155.261 135.874 154.687 133.911 153.253 134.072Z" fill="#0066CC"/>
<path d="M127.788 53.4381L154.062 37.7437C154.878 37.2539 154.9 36.0809 154.104 35.5588L105.503 3.7834C103.186 2.45889 100.631 5.09824 102.029 7.37344L127.788 53.4381Z" fill="#0066CC"/>
<path d="M37.212 53.4381L62.9707 7.37344C64.3693 5.09824 61.8138 2.45889 59.4967 3.7834L10.8958 35.562C10.0998 36.0841 10.1256 37.2571 10.9377 37.747L37.212 53.4381Z" fill="#0066CC"/>
<path d="M157.891 47.4053L133.192 62.2263L157.456 101.655C158.136 102.764 159.844 102.281 159.844 100.979V48.5106C159.844 47.5084 158.751 46.8896 157.891 47.4053Z" fill="#0066CC"/>
<path d="M7.54424 101.652L31.8076 62.223L7.10918 47.4053C6.24873 46.8896 5.15625 47.5084 5.15625 48.5106V100.979C5.15625 102.277 6.86104 102.761 7.54424 101.652Z" fill="#0066CC"/>
<path fill-rule="evenodd" clip-rule="evenodd" d="M39.5581 69.3064L5.54297 119.544C4.55039 121.156 5.5752 123.25 7.454 123.457L74.569 130.569L39.5581 69.3064ZM125.442 69.3064L90.4342 130.569L157.549 123.457C159.428 123.247 160.453 121.156 159.46 119.544L125.442 69.3064Z" fill="url(#paint0_linear_2022_31)"/>
<path d="M82.5 56.7188H117.695L86.8925 2.45566C85.8838 0.818555 84.1919 0 82.5 0C80.8081 0 79.1162 0.818555 78.1075 2.45566L47.3054 56.7188H82.5Z" fill="url(#paint1_linear_2022_31)"/>
</g>
<defs>
<linearGradient id="paint0_linear_2022_31" x1="10524.1" y1="-0.000268616" x2="4286.58" y2="16243.5" gradientUnits="userSpaceOnUse">
<stop stop-color="#2B9AF3"/>
<stop offset="1" stop-color="#73BCF7" stop-opacity="0.502213"/>
</linearGradient>
<linearGradient id="paint1_linear_2022_31" x1="10524.1" y1="-0.000268616" x2="4286.58" y2="16243.5" gradientUnits="userSpaceOnUse">
<stop stop-color="#2B9AF3"/>
<stop offset="1" stop-color="#73BCF7" stop-opacity="0.502213"/>
</linearGradient>
<clipPath id="clip0_2022_31">
<rect width="165" height="165" fill="white"/>
</clipPath>
</defs>
</svg>
